<?xml version="1.0" standalone="no"?>
<!DOCTYPE svg PUBLIC "-//W3C//DTD SVG 20010904//EN"
 "http://www.w3.org/TR/2001/REC-SVG-20010904/DTD/svg10.dtd">
<svg version="1.0" xmlns="http://www.w3.org/2000/svg"
 width="1024.000000pt" height="1024.000000pt" viewBox="0 0 1024.000000 1024.000000"
 preserveAspectRatio="xMidYMid meet">
<metadata>
Created by potrace 1.14, written by Peter Selinger 2001-2017
</metadata>
<g transform="translate(0.000000,1024.000000) scale(0.100000,-0.100000)"
fill="#000000" stroke="none">
<path d="M5053 9590 c-48 -11 -119 -57 -146 -93 -26 -34 -4830 -8353 -4871
-8435 -34 -68 -41 -128 -22 -194 22 -75 74 -140 138 -172 l52 -26 4910 0 4911
0 45 21 c142 64 203 235 132 370 -16 30 -1114 1935 -2441 4234 -1977 3425
-2421 4188 -2460 4227 -68 66 -156 90 -248 68z m2253 -4613 l2182 -3762 -2184
-3 c-1201 -1 -3167 -1 -4368 0 l-2184 3 2182 3762 c1199 2070 2183 3763 2186
3763 3 0 987 -1693 2186 -3763z"/>
<path d="M3998 5900 c-114 -29 -223 -116 -277 -222 -64 -124 -113 -403 -115
-648 l-1 -135 51 -3 51 -3 6 61 c15 135 78 265 155 318 191 130 430 -16 667
-407 73 -119 191 -347 245 -471 22 -52 45 -103 51 -113 22 -40 150 -396 186
-517 68 -229 107 -430 100 -520 -5 -83 -63 -263 -133 -418 -13 -29 -24 -56
-24 -60 0 -4 -6 -19 -14 -34 -25 -47 -76 -226 -97 -336 -29 -153 -36 -215 -48
-412 -14 -213 -1 -311 53 -418 60 -118 133 -166 252 -165 60 1 83 6 126 28 73
37 102 68 138 142 52 107 63 189 56 418 -7 212 -22 444 -36 535 -14 94 -51
281 -61 307 -14 38 -59 320 -59 374 0 27 4 57 9 67 6 9 26 51 46 92 21 41 43
82 49 90 7 8 27 42 46 75 26 49 280 462 365 595 30 47 126 208 212 355 38 66
79 136 91 155 76 129 219 393 262 485 28 61 55 117 60 127 21 39 81 233 90
297 14 88 -1 177 -41 247 -54 95 -125 130 -249 121 -87 -6 -138 -27 -202 -85
-94 -84 -134 -188 -169 -437 -11 -77 -22 -147 -24 -155 -3 -8 -12 -68 -20
-133 -13 -101 -32 -192 -74 -357 -58 -223 -155 -512 -254 -750 -88 -214 -109
-262 -157 -370 -76 -170 -82 -182 -96 -167 -6 6 -16 35 -22 62 -11 55 -61 275
-98 430 -23 95 -47 201 -94 400 -21 88 -36 143 -87 315 -39 131 -92 292 -108
327 -8 17 -15 34 -15 37 0 9 -67 183 -85 221 -8 17 -30 67 -50 113 -147 337
-351 538 -553 548 -37 2 -84 -1 -104 -6z"/>
</g>
</svg>
